<svg aria-hidden="true" style="position: absolute; width: 0; height: 0; overflow: hidden;" version="1.1" xmlns="http://www.w3.org/2000/svg" xmlns:xlink="http://www.w3.org/1999/xlink">
<defs>
<symbol id="icon-car1" viewBox="0 0 70 32">
<path fill="#ffd473" style="fill: var(--color1, #ffd473)" d="M27.974 9.186l-2.812-9.185h-1.732c-2.913 0-5.702 1.217-7.65 3.338l-5.371 5.847 17.566-0zM45.701 6.34l1.162 2.846h-14.59l-2.812-9.186h6.685c4.232 0 7.984 2.489 9.556 6.34zM52.698 32.001c3.107 0 5.626-2.468 5.626-5.513s-2.519-5.513-5.626-5.513c-3.108 0-5.627 2.468-5.627 5.513s2.519 5.513 5.627 5.513zM46.009 13.219h-13.209v2.229c0 1.086-0.852 2.020-1.959 2.072-1.182 0.055-2.158-0.868-2.158-2.015v-2.286h-24.993c-1.984 0-3.688 1.55-3.688 3.588 0 0.142-0 0.275-0.001 0.403h2.276c1.108 0 2.062 0.835 2.114 1.919 0.056 1.158-0.886 2.114-2.056 2.114h-1.827c1.112 3.23 3.951 5.653 7.376 6.289-0.636-5.692 3.932-10.592 9.684-10.592 5.827 0 10.407 5.015 9.662 10.756h15.807c-0.744-5.734 3.829-10.756 9.663-10.756 5.751 0 10.319 4.899 9.684 10.591 4.48-0.825 7.882-4.685 7.882-9.311 0-1.491-1.152-2.753-2.682-2.902l-21.573-2.101zM17.567 32.001c3.107 0 5.626-2.468 5.626-5.513s-2.519-5.513-5.626-5.513c-3.107 0-5.627 2.468-5.627 5.513s2.519 5.513 5.627 5.513z"></path>
</symbol>
<symbol id="icon-car2" viewBox="0 0 59 32">
<path fill="#26b5c0" style="fill: var(--color2, #26b5c0)" d="M33.967 7.592c4.399-0.001 4.627-0.001 4.855 0.014l0.038 0.003c0.037 0.003 0.079 0.006 0.142 0.009l-0.841-2.105c-1.313-3.285-4.445-5.407-7.979-5.407h-5.477l2.244 7.488c3.085 0 5.347-0.001 7.013-0.001h0.007zM10.51 7.593l1.496-7.488h-7.42c-0.752 0-1.416 0.489-1.641 1.207-0.779 2.496-1.349 4.319-1.765 5.652l-0 0-0.196 0.628 9.526-0zM21.115 0.105l2.244 7.488h-9.343l1.496-7.488h5.603zM10.2 16.777v-5.744h-10.195c-0.006 0.428-0.006 1.47-0.005 4.142l0 0.529h1.949c0.949 0 1.719 0.77 1.719 1.72s-0.77 1.72-1.719 1.72h-1.948l0 2.179c0 2.745 2.152 4.996 4.856 5.152-0.377-4.11 1.815-7.895 5.342-9.698zM55.004 17.341c-0.047 0.988 0.74 1.804 1.717 1.804h1.927c-0.218 2.966-2.093 5.59-4.799 6.733 0.173-5.615-4.341-10.174-9.846-10.174-5.755 0-10.349 4.958-9.81 10.781h-9.713c0.574-6.207-4.671-11.375-10.841-10.727v-4.724h10.312v1.95c0 0.978 0.815 1.765 1.802 1.719 0.925-0.044 1.636-0.841 1.636-1.767v-1.901h11.068l17.408 0.955c0.722 0.040 1.343 0.529 1.552 1.222l0.262 0.87c0.217 0.72 0.374 1.239 0.488 1.624h-1.396c-0.925 0-1.722 0.712-1.765 1.637zM43.066 31.921c2.884 0.424 5.661-1.147 6.816-3.786 1.852-4.236-1.27-8.991-5.88-8.991-3.887 0-6.908 3.454-6.35 7.341 0.4 2.786 2.604 5.024 5.414 5.436zM8.319 26.485c-0.559-3.898 2.476-7.341 6.35-7.341 3.89 0 6.907 3.457 6.35 7.34-0.321 2.237-1.816 4.172-3.95 5.037-2.449 0.993-5.249 0.377-7.067-1.553-1.356-1.439-1.597-2.969-1.662-3.378-0.011-0.069-0.017-0.106-0.022-0.106z"></path>
</symbol>
<symbol id="icon-car3" viewBox="0 0 78 32">
<path fill="#19b89d" style="fill: var(--color3, #19b89d)" d="M76.962 14.084c-7.58-4.642-16.924-6.877-24.824-6.672l-6.605-6.729c-0.893-0.91-2.341-0.91-3.234 0s-0.893 2.385 0 3.295l5.305 5.405c-3.158 1.769-6.341 2.454-9.328 2.495-1.279 2.506-2.229 4.365-2.957 5.789-1.506 2.946-2.060 4.030-2.602 5.119-0.316 0.635-0.629 1.271-1.123 2.279-0.261 0.533-0.573 1.169-0.964 1.964h17.189c-0.827-6.625 4.254-12.427 10.736-12.427 6.39 0 11.466 5.66 10.76 12.236 4.978-0.953 8.757-5.413 8.757-10.757-0-0.818-0.421-1.576-1.109-1.997zM28.903 20.139c-1.903-3.362-5.44-5.537-9.385-5.537-6.391 0-11.467 5.662-10.76 12.24-3.256-0.617-6.070-2.731-7.606-5.824-0.392-0.789-0.311-1.737 0.208-2.446l1.698-2.316-2.354-2.303c-1.335-1.306-0.669-3.598 1.136-3.966l5.077-1.034c4.688-0.955 7.070-1.44 7.193-1.461 0.558-0.259 1.901-1.050 1.901-2.677 0-1.305 1.053-2.36 2.341-2.329 1.266 0.030 2.254 1.178 2.232 2.468-0.018 1.086-0.252 2.037-0.618 2.864 2.854 0.381 5.647 1.061 8.354 2.036l-1.241-4.395c-0.349-1.237 0.352-2.528 1.566-2.883s2.481 0.359 2.83 1.595l1.332 4.715c0.421 1.491 0.263 3.088-0.439 4.464 0.012-0.024-1.657 3.244-3.465 6.789zM19.518 32.001c3.453 0 6.252-2.851 6.252-6.369s-2.799-6.369-6.252-6.369c-3.453 0-6.252 2.851-6.252 6.369s2.799 6.369 6.252 6.369zM58.553 32.001c3.453 0 6.252-2.851 6.252-6.369s-2.799-6.369-6.252-6.369c-3.453 0-6.252 2.851-6.252 6.369s2.799 6.369 6.252 6.369z"></path>
</symbol>
</defs>
</svg>
